%TF.GenerationSoftware,KiCad,Pcbnew,9.0.2*%
%TF.CreationDate,2025-09-23T09:35:52-07:00*%
%TF.ProjectId,laser V4,6c617365-7220-4563-942e-6b696361645f,rev?*%
%TF.SameCoordinates,Original*%
%TF.FileFunction,Soldermask,Top*%
%TF.FilePolarity,Negative*%
%FSLAX46Y46*%
G04 Gerber Fmt 4.6, Leading zero omitted, Abs format (unit mm)*
G04 Created by KiCad (PCBNEW 9.0.2) date 2025-09-23 09:35:52*
%MOMM*%
%LPD*%
G01*
G04 APERTURE LIST*
G04 Aperture macros list*
%AMRoundRect*
0 Rectangle with rounded corners*
0 $1 Rounding radius*
0 $2 $3 $4 $5 $6 $7 $8 $9 X,Y pos of 4 corners*
0 Add a 4 corners polygon primitive as box body*
4,1,4,$2,$3,$4,$5,$6,$7,$8,$9,$2,$3,0*
0 Add four circle primitives for the rounded corners*
1,1,$1+$1,$2,$3*
1,1,$1+$1,$4,$5*
1,1,$1+$1,$6,$7*
1,1,$1+$1,$8,$9*
0 Add four rect primitives between the rounded corners*
20,1,$1+$1,$2,$3,$4,$5,0*
20,1,$1+$1,$4,$5,$6,$7,0*
20,1,$1+$1,$6,$7,$8,$9,0*
20,1,$1+$1,$8,$9,$2,$3,0*%
G04 Aperture macros list end*
%ADD10RoundRect,0.900000X2.100000X-2.100000X2.100000X2.100000X-2.100000X2.100000X-2.100000X-2.100000X0*%
%ADD11C,1.600000*%
%ADD12O,1.600000X1.600000*%
%ADD13R,4.000000X4.000000*%
%ADD14C,4.000000*%
%ADD15C,3.000000*%
%ADD16R,1.700000X1.700000*%
%ADD17C,1.700000*%
%ADD18C,3.500000*%
%ADD19R,2.000000X1.905000*%
%ADD20O,2.000000X1.905000*%
%ADD21R,1.200000X1.200000*%
%ADD22C,1.200000*%
%ADD23C,2.400000*%
%ADD24C,2.000000*%
%ADD25R,1.730000X2.030000*%
%ADD26O,1.730000X2.030000*%
%ADD27RoundRect,0.102000X1.000000X-1.000000X1.000000X1.000000X-1.000000X1.000000X-1.000000X-1.000000X0*%
%ADD28C,2.204000*%
%ADD29R,1.800000X1.800000*%
%ADD30C,1.800000*%
%ADD31RoundRect,0.250000X-0.350000X-0.350000X0.350000X-0.350000X0.350000X0.350000X-0.350000X0.350000X0*%
%ADD32C,2.500000*%
%ADD33R,1.905000X2.000000*%
%ADD34O,1.905000X2.000000*%
%ADD35RoundRect,0.250000X-0.550000X0.550000X-0.550000X-0.550000X0.550000X-0.550000X0.550000X0.550000X0*%
%ADD36O,2.400000X2.400000*%
%ADD37RoundRect,0.416666X-0.583334X-0.583334X0.583334X-0.583334X0.583334X0.583334X-0.583334X0.583334X0*%
%ADD38R,2.000000X2.000000*%
%ADD39RoundRect,0.102000X-0.838200X-0.838200X0.838200X-0.838200X0.838200X0.838200X-0.838200X0.838200X0*%
%ADD40C,1.880400*%
%ADD41C,2.413000*%
%ADD42C,1.794000*%
%ADD43RoundRect,0.500001X-0.999999X0.999999X-0.999999X-0.999999X0.999999X-0.999999X0.999999X0.999999X0*%
%ADD44R,3.000000X3.000000*%
%ADD45O,3.000000X3.000000*%
%ADD46C,2.154000*%
%ADD47RoundRect,0.575000X-0.575000X-1.575000X0.575000X-1.575000X0.575000X1.575000X-0.575000X1.575000X0*%
%ADD48RoundRect,0.250000X-0.900000X-1.900000X0.900000X-1.900000X0.900000X1.900000X-0.900000X1.900000X0*%
%ADD49C,1.604000*%
%ADD50RoundRect,0.102000X-0.700000X-0.700000X0.700000X-0.700000X0.700000X0.700000X-0.700000X0.700000X0*%
%ADD51RoundRect,0.250001X-0.499999X-1.249999X0.499999X-1.249999X0.499999X1.249999X-0.499999X1.249999X0*%
%ADD52R,1.500000X3.000000*%
%ADD53O,1.500000X3.000000*%
%ADD54RoundRect,0.249999X-0.850001X-0.850001X0.850001X-0.850001X0.850001X0.850001X-0.850001X0.850001X0*%
%ADD55C,2.200000*%
%ADD56RoundRect,0.102000X0.600000X0.600000X-0.600000X0.600000X-0.600000X-0.600000X0.600000X-0.600000X0*%
%ADD57C,1.404000*%
G04 APERTURE END LIST*
D10*
%TO.C,*%
X148350000Y-186040000D03*
%TD*%
%TO.C,*%
X148350000Y-186040000D03*
%TD*%
%TO.C,*%
X114140000Y-34490000D03*
%TD*%
D11*
%TO.C,R6*%
X146435000Y-90950000D03*
D12*
X136275000Y-90950000D03*
%TD*%
D13*
%TO.C,C2*%
X59056000Y-69254000D03*
D14*
X49056000Y-69254000D03*
%TD*%
D15*
%TO.C,TP4*%
X96178000Y-80474000D03*
%TD*%
D11*
%TO.C,R26*%
X74800000Y-158910000D03*
D12*
X74800000Y-148750000D03*
%TD*%
D11*
%TO.C,R28*%
X111690000Y-167825000D03*
D12*
X101530000Y-167825000D03*
%TD*%
D15*
%TO.C,TP2*%
X83775000Y-52775000D03*
%TD*%
D16*
%TO.C,SW5*%
X68825000Y-141285000D03*
D17*
X68825000Y-143825000D03*
%TD*%
D18*
%TO.C,Q11*%
X136320000Y-106025000D03*
D19*
X152980000Y-103485000D03*
D20*
X152980000Y-106025000D03*
X152980000Y-108565000D03*
%TD*%
D21*
%TO.C,C16*%
X83976400Y-74230000D03*
D22*
X85976401Y-74230000D03*
%TD*%
D18*
%TO.C,LD1*%
X162901000Y-130552000D03*
X162901000Y-120552000D03*
%TD*%
D23*
%TO.C,0.23*%
X162200000Y-153600000D03*
X162200000Y-179000000D03*
%TD*%
D24*
%TO.C,ICL*%
X79030000Y-40570000D03*
X89030000Y-44470000D03*
%TD*%
D25*
%TO.C,J3*%
X53525000Y-183650000D03*
D26*
X50985000Y-183650000D03*
X48445000Y-183650000D03*
X45905000Y-183650000D03*
%TD*%
D21*
%TO.C,C7*%
X90921600Y-74230000D03*
D22*
X88921599Y-74230000D03*
%TD*%
D15*
%TO.C,U4*%
X15725000Y-170910000D03*
X62675000Y-170910000D03*
X15725000Y-146400000D03*
X62675000Y-146400000D03*
D27*
X23685000Y-171330000D03*
D28*
X26225000Y-171330000D03*
X28765000Y-171330000D03*
X31305000Y-171330000D03*
X33845000Y-171330000D03*
X36385000Y-171330000D03*
X38925000Y-171330000D03*
X41465000Y-171330000D03*
X44005000Y-171330000D03*
X46545000Y-171330000D03*
X49085000Y-171330000D03*
X51625000Y-171330000D03*
X54165000Y-171330000D03*
X56705000Y-171330000D03*
X59245000Y-171330000D03*
X59245000Y-145930000D03*
X56705000Y-145930000D03*
X54165000Y-145930000D03*
X51625000Y-145930000D03*
X49085000Y-145930000D03*
X46545000Y-145930000D03*
X44005000Y-145930000D03*
X41465000Y-145930000D03*
X38925000Y-145930000D03*
X36385000Y-145930000D03*
X33845000Y-145930000D03*
X31305000Y-145930000D03*
X28765000Y-145930000D03*
X26225000Y-145930000D03*
X23685000Y-145930000D03*
%TD*%
D29*
%TO.C,D12*%
X94855000Y-186945000D03*
D30*
X97395000Y-186945000D03*
%TD*%
D31*
%TO.C,C1*%
X19627400Y-187300000D03*
D22*
X21627401Y-187300000D03*
%TD*%
D15*
%TO.C,TP1*%
X156644000Y-65421000D03*
%TD*%
%TO.C,SW3*%
X92450000Y-20992500D03*
X92450000Y-25992500D03*
X97450000Y-20992500D03*
X97450000Y-25992500D03*
%TD*%
D32*
%TO.C,D5*%
X105064800Y-44475000D03*
X97444800Y-44475000D03*
X105064800Y-34475000D03*
X97444800Y-34475000D03*
%TD*%
D18*
%TO.C,Q3*%
X136095000Y-116850000D03*
D19*
X152755000Y-114310000D03*
D20*
X152755000Y-116850000D03*
X152755000Y-119390000D03*
%TD*%
D16*
%TO.C,SW6*%
X74775000Y-141300000D03*
D17*
X74775000Y-143840000D03*
%TD*%
D29*
%TO.C,D8*%
X83030000Y-167825000D03*
D30*
X85570000Y-167825000D03*
%TD*%
D11*
%TO.C,R39*%
X119280000Y-98850000D03*
X109120000Y-98850000D03*
%TD*%
%TO.C,R5*%
X116475000Y-134185000D03*
X116475000Y-124025000D03*
%TD*%
%TO.C,R22*%
X80715000Y-93925000D03*
D12*
X90875000Y-93925000D03*
%TD*%
D18*
%TO.C,Q5*%
X127225000Y-104755000D03*
D33*
X124685000Y-88095000D03*
D34*
X127225000Y-88095000D03*
X129765000Y-88095000D03*
%TD*%
D23*
%TO.C,R9*%
X141425000Y-153600000D03*
X141425000Y-179000000D03*
%TD*%
D35*
%TO.C,U3*%
X89427200Y-80366400D03*
D11*
X86887200Y-80366400D03*
X84347201Y-80366400D03*
X81807200Y-80366400D03*
X81807200Y-87986400D03*
X84347200Y-87986400D03*
X86887200Y-87986400D03*
X89427200Y-87986400D03*
%TD*%
D10*
%TO.C,J1*%
X30185000Y-67200000D03*
X18185000Y-57200000D03*
X30185000Y-47200000D03*
%TD*%
D18*
%TO.C,U1*%
X127350000Y-122495000D03*
D33*
X129890000Y-139155000D03*
D34*
X127350000Y-139155000D03*
X124810000Y-139155000D03*
%TD*%
D29*
%TO.C,D10*%
X94855000Y-177525000D03*
D30*
X97395000Y-177525000D03*
%TD*%
D31*
%TO.C,C17*%
X110652400Y-79850000D03*
D22*
X112652400Y-79850000D03*
%TD*%
D23*
%TO.C,R1*%
X59100000Y-31725000D03*
D36*
X46400000Y-31725000D03*
%TD*%
D37*
%TO.C,C15*%
X157882600Y-107954000D03*
D22*
X159882601Y-107954000D03*
%TD*%
D11*
%TO.C,R23*%
X94151600Y-83714200D03*
D12*
X94151600Y-93874200D03*
%TD*%
D11*
%TO.C,R34*%
X54525000Y-141930000D03*
D12*
X54525000Y-131770000D03*
%TD*%
D38*
%TO.C,D2*%
X135664200Y-56674000D03*
D24*
X140744200Y-56674000D03*
%TD*%
D39*
%TO.C,U8*%
X100865000Y-82540000D03*
D40*
X100865000Y-85080000D03*
X100865000Y-87620000D03*
X100865000Y-90160000D03*
X108485000Y-90160000D03*
X108485000Y-87620000D03*
X108485000Y-85080000D03*
X108485000Y-82540000D03*
%TD*%
D16*
%TO.C,TH1*%
X61050000Y-134950000D03*
D17*
X61050000Y-137490000D03*
%TD*%
D41*
%TO.C,L1*%
X151158200Y-30400000D03*
X122158206Y-30400000D03*
%TD*%
D42*
%TO.C,RV1*%
X75706000Y-54254000D03*
X73706000Y-61754000D03*
%TD*%
D43*
%TO.C,SW1*%
X145869000Y-65421000D03*
D44*
X140869000Y-65421000D03*
D45*
X145869000Y-70421000D03*
X140869000Y-70421000D03*
%TD*%
D11*
%TO.C,R4*%
X111525000Y-134188000D03*
X111525000Y-124028000D03*
%TD*%
D21*
%TO.C,C3*%
X59152000Y-43958000D03*
D22*
X57152000Y-43958000D03*
%TD*%
D11*
%TO.C,R31*%
X101550000Y-177525000D03*
D12*
X111710000Y-177525000D03*
%TD*%
D11*
%TO.C,R33*%
X101578000Y-186945000D03*
D12*
X111738000Y-186945000D03*
%TD*%
D18*
%TO.C,Q10*%
X128130000Y-113675000D03*
D19*
X111470000Y-116215000D03*
D20*
X111470000Y-113675000D03*
X111470000Y-111135000D03*
%TD*%
D44*
%TO.C,PS1*%
X51192500Y-107725000D03*
D15*
X51192500Y-118475000D03*
X89692500Y-118475000D03*
X89692500Y-110475000D03*
%TD*%
%TO.C,TP3*%
X123725000Y-83475000D03*
%TD*%
D29*
%TO.C,D9*%
X83025000Y-177525000D03*
D30*
X85565000Y-177525000D03*
%TD*%
D46*
%TO.C,U7*%
X33785000Y-93910000D03*
X23035000Y-93910000D03*
X23035000Y-132410000D03*
X31035000Y-132410000D03*
%TD*%
D21*
%TO.C,C11*%
X16275000Y-136600000D03*
D22*
X16275000Y-138600000D03*
%TD*%
D47*
%TO.C,F2*%
X45808000Y-20905400D03*
D48*
X65308000Y-20905400D03*
%TD*%
D21*
%TO.C,C12*%
X45905000Y-188400000D03*
D22*
X45905000Y-190400000D03*
%TD*%
D23*
%TO.C,R13*%
X148360000Y-153600000D03*
D36*
X148360000Y-179000000D03*
%TD*%
D49*
%TO.C,CIn1*%
X105087500Y-61300000D03*
D50*
X97587500Y-61300000D03*
%TD*%
D11*
%TO.C,R30*%
X78555000Y-177550000D03*
X68395000Y-177550000D03*
%TD*%
%TO.C,R27*%
X68825000Y-148750000D03*
D12*
X68825000Y-158910000D03*
%TD*%
D16*
%TO.C,J4*%
X18175000Y-181500000D03*
D17*
X20715000Y-181500000D03*
X23254999Y-181500000D03*
X25795000Y-181500000D03*
X28335000Y-181500000D03*
X30875000Y-181500000D03*
X33415000Y-181500000D03*
X35955001Y-181500000D03*
%TD*%
D38*
%TO.C,D4*%
X117003000Y-90124000D03*
D24*
X117003000Y-85044001D03*
%TD*%
D11*
%TO.C,FB1*%
X15535000Y-129641400D03*
D12*
X15535000Y-122021400D03*
%TD*%
D23*
%TO.C,0.23*%
X155265000Y-153600000D03*
X155265000Y-179000000D03*
%TD*%
D51*
%TO.C,SW4*%
X142475000Y-139150000D03*
D52*
X142475000Y-144150000D03*
D53*
X147475000Y-139150000D03*
X147475000Y-144150000D03*
%TD*%
D29*
%TO.C,D11*%
X82950000Y-186945000D03*
D30*
X85490000Y-186945000D03*
%TD*%
D15*
%TO.C,SW2*%
X75850000Y-20992500D03*
X75850000Y-25992500D03*
X80850000Y-20992500D03*
X80850000Y-25992500D03*
%TD*%
D29*
%TO.C,D7*%
X94865000Y-167825000D03*
D30*
X97405000Y-167825000D03*
%TD*%
D11*
%TO.C,R29*%
X78530000Y-167825000D03*
D12*
X68370000Y-167825000D03*
%TD*%
D54*
%TO.C,D13*%
X136275000Y-98850000D03*
D55*
X146435000Y-98850000D03*
%TD*%
D11*
%TO.C,R32*%
X78530000Y-186925000D03*
D12*
X68370000Y-186925000D03*
%TD*%
D56*
%TO.C,C4*%
X162125000Y-95025000D03*
D57*
X157125000Y-95025000D03*
%TD*%
D21*
%TO.C,C10*%
X79026400Y-74230000D03*
D22*
X81026401Y-74230000D03*
%TD*%
M02*
