M48
; DRILL file {KiCad 9.0.2} date 2025-09-23T09:36:04-0700
; FORMAT={-:-/ absolute / metric / decimal}
; #@! TF.CreationDate,2025-09-23T09:36:04-07:00
; #@! TF.GenerationSoftware,Kicad,Pcbnew,9.0.2
; #@! TF.FileFunction,Plated,1,2,PTH
FMAT,2
METRIC
; #@! TA.AperFunction,Plated,PTH,ViaDrill
T1C0.300
; #@! TA.AperFunction,Plated,PTH,ComponentDrill
T2C0.600
; #@! TA.AperFunction,Plated,PTH,ComponentDrill
T3C0.800
; #@! TA.AperFunction,Plated,PTH,ComponentDrill
T4C0.900
; #@! TA.AperFunction,Plated,PTH,ComponentDrill
T5C1.000
; #@! TA.AperFunction,Plated,PTH,ComponentDrill
T6C1.020
; #@! TA.AperFunction,Plated,PTH,ComponentDrill
T7C1.050
; #@! TA.AperFunction,Plated,PTH,ComponentDrill
T8C1.060
; #@! TA.AperFunction,Plated,PTH,ComponentDrill
T9C1.100
; #@! TA.AperFunction,Plated,PTH,ComponentDrill
T10C1.118
; #@! TA.AperFunction,Plated,PTH,ComponentDrill
T11C1.150
; #@! TA.AperFunction,Plated,PTH,ComponentDrill
T12C1.200
; #@! TA.AperFunction,Plated,PTH,ComponentDrill
T13C1.300
; #@! TA.AperFunction,Plated,PTH,ComponentDrill
T14C1.500
; #@! TA.AperFunction,Plated,PTH,ComponentDrill
T15C1.905
; #@! TA.AperFunction,Plated,PTH,ComponentDrill
T16C2.000
; #@! TA.AperFunction,Plated,PTH,ComponentDrill
T17C2.200
; #@! TA.AperFunction,Plated,PTH,ComponentDrill
T18C2.500
%
G90
G05
T1
X46.01Y-169.335
X63.807Y-175.765
X70.248Y-157.461
X93.468Y-149.035
X94.293Y-149.862
X114.362Y-80.652
T2
X16.275Y-136.6
X16.275Y-138.6
X19.627Y-187.3
X21.627Y-187.3
X45.905Y-188.4
X45.905Y-190.4
X57.152Y-43.958
X59.152Y-43.958
X79.026Y-74.23
X81.026Y-74.23
X83.976Y-74.23
X85.976Y-74.23
X88.922Y-74.23
X90.922Y-74.23
X110.652Y-79.85
X112.652Y-79.85
X157.883Y-107.954
X159.883Y-107.954
T3
X15.535Y-122.021
X15.535Y-129.641
X54.525Y-131.77
X54.525Y-141.93
X68.37Y-167.825
X68.37Y-186.925
X68.395Y-177.55
X68.825Y-148.75
X68.825Y-158.91
X74.8Y-148.75
X74.8Y-158.91
X78.53Y-167.825
X78.53Y-186.925
X78.555Y-177.55
X80.715Y-93.925
X81.807Y-80.366
X81.807Y-87.986
X84.347Y-87.986
X84.347Y-80.366
X86.887Y-80.366
X86.887Y-87.986
X89.427Y-80.366
X89.427Y-87.986
X90.875Y-93.925
X94.152Y-83.714
X94.152Y-93.874
X101.53Y-167.825
X101.55Y-177.525
X101.578Y-186.945
X109.12Y-98.85
X111.525Y-124.028
X111.525Y-134.188
X111.69Y-167.825
X111.71Y-177.525
X111.738Y-186.945
X116.475Y-124.025
X116.475Y-134.185
X119.28Y-98.85
X136.275Y-90.95
X146.435Y-90.95
X157.125Y-95.025
X162.125Y-95.025
T4
X82.95Y-186.945
X83.025Y-177.525
X83.03Y-167.825
X85.49Y-186.945
X85.565Y-177.525
X85.57Y-167.825
X94.855Y-177.525
X94.855Y-186.945
X94.865Y-167.825
X97.395Y-177.525
X97.395Y-186.945
X97.405Y-167.825
T5
X18.175Y-181.5
X20.715Y-181.5
X23.255Y-181.5
X25.795Y-181.5
X28.335Y-181.5
X30.875Y-181.5
X33.415Y-181.5
X35.955Y-181.5
X61.05Y-134.95
X61.05Y-137.49
X68.825Y-141.285
X68.825Y-143.825
X74.775Y-141.3
X74.775Y-143.84
X79.03Y-40.57
X89.03Y-44.47
T6
X23.685Y-145.93
X23.685Y-171.33
X26.225Y-145.93
X26.225Y-171.33
X28.765Y-145.93
X28.765Y-171.33
X31.305Y-145.93
X31.305Y-171.33
X33.845Y-145.93
X33.845Y-171.33
X36.385Y-145.93
X36.385Y-171.33
X38.925Y-145.93
X38.925Y-171.33
X41.465Y-145.93
X41.465Y-171.33
X44.005Y-145.93
X44.005Y-171.33
X45.905Y-183.65
X46.545Y-145.93
X46.545Y-171.33
X48.445Y-183.65
X49.085Y-145.93
X49.085Y-171.33
X50.985Y-183.65
X51.625Y-145.93
X51.625Y-171.33
X53.525Y-183.65
X54.165Y-145.93
X54.165Y-171.33
X56.705Y-145.93
X56.705Y-171.33
X59.245Y-145.93
X59.245Y-171.33
T7
X97.587Y-61.3
X105.087Y-61.3
T8
X73.706Y-61.754
X75.706Y-54.254
T9
X111.47Y-111.135
X111.47Y-113.675
X111.47Y-116.215
X117.003Y-85.044
X117.003Y-90.124
X124.685Y-88.095
X124.81Y-139.155
X127.225Y-88.095
X127.35Y-139.155
X129.765Y-88.095
X129.89Y-139.155
X135.664Y-56.674
X136.275Y-98.85
X140.744Y-56.674
X146.435Y-98.85
X152.755Y-114.31
X152.755Y-116.85
X152.755Y-119.39
X152.98Y-103.485
X152.98Y-106.025
X152.98Y-108.565
T10
X100.865Y-82.54
X100.865Y-85.08
X100.865Y-87.62
X100.865Y-90.16
X108.485Y-82.54
X108.485Y-85.08
X108.485Y-87.62
X108.485Y-90.16
T11
X142.475Y-139.15
X142.475Y-144.15
X147.475Y-139.15
X147.475Y-144.15
T12
X46.4Y-31.725
X59.1Y-31.725
X97.445Y-34.475
X97.445Y-44.475
X105.065Y-34.475
X105.065Y-44.475
X141.425Y-153.6
X141.425Y-179.0
X148.36Y-153.6
X148.36Y-179.0
X155.265Y-153.6
X155.265Y-179.0
X162.2Y-153.6
X162.2Y-179.0
T13
X23.035Y-93.91
X23.035Y-132.41
X31.035Y-132.41
X33.785Y-93.91
T14
X51.192Y-107.725
X51.192Y-118.475
X89.692Y-110.475
X89.692Y-118.475
T15
X122.158Y-30.4
X151.158Y-30.4
T16
X18.185Y-57.2
X30.185Y-47.2
X30.185Y-67.2
X49.056Y-69.254
X59.056Y-69.254
X83.775Y-52.775
X96.178Y-80.474
X114.14Y-34.49
X123.725Y-83.475
X148.35Y-186.04
X148.35Y-186.04
X156.644Y-65.421
T17
X75.85Y-20.992
X75.85Y-25.992
X80.85Y-20.992
X80.85Y-25.992
X92.45Y-20.992
X92.45Y-25.992
X97.45Y-20.992
X97.45Y-25.992
X140.869Y-65.421
X140.869Y-70.421
X145.869Y-65.421
X145.869Y-70.421
T18
X162.901Y-120.552
X162.901Y-130.552
T13
G00X45.808Y-19.955
M15
G01X45.808Y-21.855
M16
G05
G00X65.308Y-19.955
M15
G01X65.308Y-21.855
M16
G05
M30
